<svg width="235" height="43" viewBox="0 0 235 43" fill="none" xmlns="http://www.w3.org/2000/svg">
<path d="M103.242 15.0918C103.246 15.304 103.208 15.5149 103.13 15.7123L96.2612 32.1238C96.1395 32.4235 95.9312 32.68 95.6629 32.8607C95.3946 33.0413 95.0785 33.1378 94.755 33.1378C94.4316 33.1378 94.1155 33.0413 93.8471 32.8607C93.5788 32.68 93.3705 32.4235 93.2488 32.1238L91.0772 26.918L88.8869 32.1238C88.7652 32.4235 88.5569 32.68 88.2886 32.8607C88.0202 33.0413 87.7041 33.1378 87.3807 33.1378C87.0572 33.1378 86.7411 33.0413 86.4728 32.8607C86.2045 32.68 85.9962 32.4235 85.8745 32.1238L79.009 15.7092C78.9311 15.5118 78.8931 15.3009 78.8973 15.0887C78.8981 14.6488 79.0732 14.2271 79.3843 13.916C79.6954 13.6049 80.1171 13.4298 80.5571 13.429C80.8781 13.4303 81.1915 13.5272 81.4573 13.7073C81.723 13.8874 81.9291 14.1426 82.0493 14.4403L87.3978 27.2221L89.284 22.6337L86.4143 15.7092C86.3247 15.5046 86.2772 15.2841 86.2747 15.0608C86.2755 14.8444 86.3192 14.6302 86.4032 14.4308C86.4873 14.2313 86.61 14.0505 86.7643 13.8988C86.9187 13.7471 87.1015 13.6274 87.3024 13.5468C87.5032 13.4661 87.7181 13.4261 87.9345 13.429C88.2582 13.4123 88.5785 13.5021 88.8463 13.6848C89.1142 13.8674 89.3147 14.1328 89.4174 14.4403L91.0772 18.3803L92.7152 14.4403C92.8349 14.142 93.0408 13.8862 93.3066 13.7055C93.5724 13.5248 93.886 13.4274 94.2074 13.4258C94.6474 13.4267 95.0691 13.6018 95.3802 13.9129C95.6913 14.224 95.8664 14.6457 95.8672 15.0856C95.8714 15.2978 95.8334 15.5087 95.7555 15.7061L92.8548 22.6306L94.769 27.219L100.09 14.4403C100.209 14.142 100.415 13.8862 100.681 13.7055C100.947 13.5248 101.26 13.4274 101.582 13.4258C101.805 13.4285 102.026 13.476 102.23 13.5655C102.534 13.687 102.793 13.8982 102.974 14.1709C103.155 14.4436 103.248 14.7648 103.242 15.0918Z" fill="white"/>
<path d="M117.317 31.5034V15.0609C117.317 14.6281 117.489 14.213 117.795 13.907C118.101 13.601 118.516 13.429 118.949 13.429C119.382 13.429 119.797 13.601 120.103 13.907C120.409 14.213 120.581 14.6281 120.581 15.0609V31.5034C120.581 31.9362 120.409 32.3513 120.103 32.6573C119.797 32.9633 119.382 33.1352 118.949 33.1352C118.516 33.1352 118.101 32.9633 117.795 32.6573C117.489 32.3513 117.317 31.9362 117.317 31.5034Z" fill="white"/>
<path d="M136.288 33.1321C135.852 33.1256 135.437 32.9477 135.131 32.6371C134.826 32.3264 134.655 31.908 134.656 31.4723C134.648 31.1838 134.727 30.8994 134.882 30.6564L143.243 16.7237H136.288C135.851 16.7237 135.432 16.5502 135.123 16.2412C134.814 15.9323 134.641 15.5133 134.641 15.0764C134.641 14.6395 134.814 14.2204 135.123 13.9115C135.432 13.6026 135.851 13.429 136.288 13.429H146.138C146.57 13.433 146.983 13.6062 147.288 13.9112C147.594 14.2163 147.768 14.629 147.773 15.0608C147.785 15.3586 147.706 15.6529 147.546 15.9047L139.189 29.8405H146.141C146.363 29.8309 146.585 29.8663 146.793 29.9446C147.001 30.023 147.191 30.1427 147.352 30.2964C147.512 30.4502 147.64 30.6349 147.727 30.8394C147.815 31.0439 147.86 31.264 147.86 31.4863C147.86 31.7087 147.815 31.9287 147.727 32.1332C147.64 32.3377 147.512 32.5224 147.352 32.6762C147.191 32.8299 147.001 32.9496 146.793 33.028C146.585 33.1063 146.363 33.1418 146.141 33.1321H136.288Z" fill="white"/>
<path d="M163.505 33.1321C163.069 33.1256 162.654 32.9477 162.348 32.6371C162.043 32.3264 161.872 31.908 161.873 31.4723C161.865 31.1838 161.944 30.8994 162.1 30.6564L170.46 16.7237H163.505C163.068 16.7237 162.649 16.5502 162.34 16.2412C162.031 15.9323 161.858 15.5133 161.858 15.0764C161.858 14.6395 162.031 14.2204 162.34 13.9115C162.649 13.6026 163.068 13.429 163.505 13.429H173.355C173.787 13.433 174.2 13.6062 174.505 13.9112C174.811 14.2163 174.985 14.629 174.99 15.0608C175.002 15.3586 174.923 15.6529 174.763 15.9047L166.406 29.8405H173.358C173.58 29.8309 173.802 29.8663 174.01 29.9446C174.218 30.023 174.408 30.1427 174.569 30.2964C174.729 30.4502 174.857 30.6349 174.944 30.8394C175.032 31.0439 175.077 31.264 175.077 31.4863C175.077 31.7087 175.032 31.9287 174.944 32.1332C174.857 32.3377 174.729 32.5224 174.569 32.6762C174.408 32.8299 174.218 32.9496 174.01 33.028C173.802 33.1063 173.58 33.1418 173.358 33.1321H163.505Z" fill="white"/>
<path d="M187.123 23.2821C187.123 17.8499 191.345 13.4321 196.551 13.4321C201.757 13.4321 206.007 17.853 206.007 23.2821C206.007 28.7113 201.757 33.1321 196.551 33.1321C191.345 33.1321 187.123 28.7113 187.123 23.2821ZM190.418 23.2821C190.418 26.9119 193.176 29.8405 196.554 29.8405C199.933 29.8405 202.716 26.9119 202.716 23.2821C202.716 19.6524 199.958 16.7237 196.551 16.7237C193.145 16.7237 190.415 19.6524 190.415 23.2821H190.418Z" fill="white"/>
<path d="M220.899 29.3069C220.392 28.1814 220.115 26.9666 220.083 25.7329V15.0608C220.083 14.628 220.255 14.213 220.561 13.9069C220.867 13.6009 221.282 13.429 221.715 13.429C222.147 13.429 222.562 13.6009 222.868 13.9069C223.175 14.213 223.346 14.628 223.346 15.0608V25.7298C223.346 26.1518 223.685 29.8405 227.069 29.8405C230.277 29.8405 230.755 26.3782 230.755 25.7298V15.0608C230.755 14.628 230.927 14.213 231.233 13.9069C231.539 13.6009 231.954 13.429 232.387 13.429C232.82 13.429 233.235 13.6009 233.541 13.9069C233.847 14.213 234.019 14.628 234.019 15.0608V25.7298C234.002 26.9624 233.734 28.1786 233.231 29.3038C232.076 31.7857 229.88 33.1321 227.066 33.1321C224.252 33.1321 222.053 31.7826 220.899 29.3069Z" fill="white"/>
<path d="M17.6629 30.3865C17.2784 30.6083 16.8539 30.7522 16.4137 30.8099C15.9735 30.8676 15.5263 30.838 15.0976 30.7227C14.6688 30.6075 14.267 30.4089 13.9151 30.1383C13.5632 29.8676 13.2681 29.5303 13.0466 29.1455L1.45306 9.52C1.2245 9.13553 1.07455 8.7095 1.01192 8.26663C0.949292 7.82375 0.975227 7.37285 1.08822 6.94007C1.20122 6.5073 1.39903 6.10127 1.67017 5.74554C1.94131 5.38981 2.28039 5.09146 2.66774 4.8678C3.05508 4.64414 3.48299 4.49962 3.92663 4.44263C4.37026 4.38564 4.8208 4.41731 5.2521 4.53579C5.6834 4.65428 6.08688 4.85724 6.43914 5.13288C6.79139 5.40853 7.0854 5.75137 7.30412 6.14153L18.9007 25.7733C19.3481 26.5492 19.469 27.4711 19.2368 28.3361C19.0047 29.2012 18.4386 29.9387 17.6629 30.3865Z" fill="url(#paint0_linear_6056_4621)"/>
<path d="M38.7991 26.7914L24.8882 2.62086C24.4401 1.84291 23.7014 1.27479 22.8345 1.04148C21.9677 0.808178 21.0436 0.928801 20.2656 1.37681C19.4877 1.82483 18.9196 2.56353 18.6863 3.43042C18.453 4.29731 18.5736 5.22138 19.0216 5.99933L33.401 30.9547L37.9181 38.6641C38.1432 39.0465 38.4414 39.3807 38.7956 39.6478C39.1499 39.915 39.5533 40.1097 39.9829 40.2209C40.4124 40.3321 40.8596 40.3576 41.299 40.2959C41.7384 40.2343 42.1613 40.0867 42.5437 39.8616C42.9261 39.6365 43.2603 39.3383 43.5274 38.9841C43.7945 38.6298 43.9893 38.2263 44.1005 37.7968C44.2117 37.3673 44.2372 36.9201 44.1755 36.4807C44.1139 36.0413 43.9663 35.6184 43.7412 35.236L38.7991 26.7914Z" fill="url(#paint1_linear_6056_4621)"/>
<path d="M45.5855 24.0699C45.9764 24.2804 46.4049 24.4118 46.8465 24.4567C47.2882 24.5015 47.7344 24.4588 48.1596 24.331C48.5847 24.2033 48.9806 23.993 49.3244 23.7122C49.6683 23.4314 49.9534 23.0856 50.1636 22.6946L58.1267 8.44235C58.5514 7.65205 58.6448 6.72542 58.3862 5.8663C58.1277 5.00718 57.5385 4.28595 56.7482 3.86127C55.9579 3.43658 55.0313 3.34324 54.1722 3.60176C53.313 3.86029 52.5918 4.44951 52.1671 5.23981L44.2039 19.492C43.9937 19.8833 43.8627 20.3121 43.8183 20.754C43.774 21.1959 43.8172 21.6422 43.9455 22.0674C44.0738 22.4926 44.2847 22.8884 44.5661 23.232C44.8475 23.5756 45.1939 23.8603 45.5855 24.0699Z" fill="url(#paint2_linear_6056_4621)"/>
<defs>
<linearGradient id="paint0_linear_6056_4621" x1="4.73536" y1="14.5055" x2="41.1912" y2="35.5519" gradientUnits="userSpaceOnUse">
<stop offset="0.09" stop-color="#218AF0"/>
<stop offset="0.16" stop-color="#2B85EB"/>
<stop offset="0.27" stop-color="#4576DC"/>
<stop offset="0.41" stop-color="#705EC4"/>
<stop offset="0.58" stop-color="#AB3EA4"/>
<stop offset="0.64" stop-color="#C33197"/>
<stop offset="0.96" stop-color="#FF4B18"/>
</linearGradient>
<linearGradient id="paint1_linear_6056_4621" x1="13.4591" y1="10.2806" x2="49.372" y2="31.0168" gradientUnits="userSpaceOnUse">
<stop offset="0.09" stop-color="#218AF0"/>
<stop offset="0.16" stop-color="#2B85EB"/>
<stop offset="0.27" stop-color="#4576DC"/>
<stop offset="0.41" stop-color="#705EC4"/>
<stop offset="0.58" stop-color="#AB3EA4"/>
<stop offset="0.64" stop-color="#C33197"/>
<stop offset="0.96" stop-color="#FF4B18"/>
</linearGradient>
<linearGradient id="paint2_linear_6056_4621" x1="39.4821" y1="7.6716" x2="60.1778" y2="18.8263" gradientUnits="userSpaceOnUse">
<stop offset="0.09" stop-color="#218AF0"/>
<stop offset="0.16" stop-color="#2B85EB"/>
<stop offset="0.27" stop-color="#4576DC"/>
<stop offset="0.41" stop-color="#705EC4"/>
<stop offset="0.58" stop-color="#AB3EA4"/>
<stop offset="0.64" stop-color="#C33197"/>
<stop offset="0.96" stop-color="#FF4B18"/>
</linearGradient>
</defs>
</svg>
