<svg width="86" height="17" viewBox="0 0 86 17" fill="none" xmlns="http://www.w3.org/2000/svg">
<path fill-rule="evenodd" clip-rule="evenodd" d="M80.617 3.52112C82.1479 3.52112 83.7516 3.86278 84.8694 4.30206V1.30031C83.7273 0.934243 82.1479 0.568176 80.0824 0.568176C76.1702 0.568176 73.5215 2.03244 73.5215 5.083C73.5215 10.3544 81.0787 9.28057 81.0787 11.7211C81.0787 12.6728 80.1796 13.2097 78.4057 13.2097C76.802 13.2097 74.9309 13.1609 73.4729 12.4776V15.4549C74.9309 15.9674 77.045 16.187 78.6487 16.187C82.7067 16.187 85.647 14.9669 85.647 11.2085C85.647 6.1812 78.0412 7.64547 78.0412 4.66812C78.0169 3.54552 79.2319 3.52112 80.617 3.52112ZM64.6522 12.1115H63.2915V16.187H58.5531V0.568176C58.6503 0.568176 62.3195 0.64139 63.9719 0.568176C68.8561 0.64139 72.1122 2.20328 72.1122 6.01037C72.1122 10.452 68.9289 12.1115 64.6522 12.1115ZM63.9962 3.27707C63.7532 3.27707 63.5831 3.27707 63.3158 3.27707V9.37819H63.9962C66.3775 9.37819 67.3738 8.64605 67.3738 5.98597C67.3738 4.35087 66.256 3.30148 63.9962 3.27707ZM51.1418 0.568176H55.8801V16.187H51.1418V0.568176ZM39.6481 16.187V0.568176H44.3866V12.7949H49.1249L48.4446 16.187H39.6481ZM32.2126 0.568176H36.9509V16.187H32.2126V0.568176ZM24.7769 10.0859H20.0386V16.187H15.3001V0.568176H20.0386V6.6693H24.7769V0.568176H29.5153V16.187H24.7769V10.0859ZM6.50375 12.1115H5.14298V16.187H0.428894V0.568176C0.526092 0.568176 4.19531 0.64139 5.84766 0.568176C10.7318 0.64139 13.9637 2.20328 13.9637 6.01037C13.9637 10.452 10.7804 12.1115 6.50375 12.1115ZM5.84766 3.27707C5.60467 3.27707 5.43457 3.27707 5.16728 3.27707V9.37819H5.84766C8.22901 9.37819 9.22529 8.64605 9.22529 5.98597C9.22529 4.35087 8.10751 3.30148 5.84766 3.27707Z" fill="#A3A3A3"/>
</svg>
