<svg width="67" height="21" viewBox="0 0 67 21" fill="none" xmlns="http://www.w3.org/2000/svg">
<g clip-path="url(#clip0_4011_4063)">
<mask id="mask0_4011_4063" style="mask-type:luminance" maskUnits="userSpaceOnUse" x="1" y="1" width="66" height="19">
<path d="M66.3664 1.0932H1.59277V19.672H66.3664V1.0932Z" fill="white"/>
</mask>
<g mask="url(#mask0_4011_4063)">
<path d="M19.7102 1.0932C16.7428 1.0932 14.3278 3.50721 14.3278 6.47557V16.0599H12.3566V6.47912C12.3566 3.51075 9.94262 1.09586 6.97514 1.09586C4.00767 1.09586 1.59277 3.51075 1.59277 6.47823V19.4595H4.98975V6.47823C4.98975 5.38369 5.87972 4.49371 6.97426 4.49371C8.0688 4.49371 8.95878 5.38369 8.95878 6.47823V19.4595L17.7249 19.4551V6.47557C17.7249 5.38104 18.6148 4.49105 19.7094 4.49105C20.8039 4.49105 21.6939 5.38104 21.6939 6.47557V19.4569H25.0908V6.47557C25.0908 3.50809 22.6768 1.0932 19.7085 1.0932H19.7102Z" fill="#A3A3A3"/>
<path d="M34.8432 13.7946C34.8432 15.1619 33.7309 16.2751 32.3628 16.2751C30.9946 16.2751 29.8824 15.1628 29.8824 13.7946V6.47552H26.4854V13.7955C26.4854 17.0366 29.1216 19.6729 32.3628 19.6729C35.6039 19.6729 38.2402 17.0366 38.2402 13.7955V6.47552H34.8432V13.7955V13.7946Z" fill="#A3A3A3"/>
<path d="M66.3657 1.30316H62.9688V19.4561H66.3657V1.30316Z" fill="#A3A3A3"/>
<path d="M39.6348 19.4568H43.0317V9.8955H48.0067V6.47552H39.6348V19.4568Z" fill="#A3A3A3"/>
<path d="M58.1771 7.58226C57.1232 6.77287 55.8251 6.29291 54.4223 6.29291C50.9085 6.29291 48.0508 9.29314 48.0508 12.9806C48.0508 16.668 50.9093 19.6683 54.4223 19.6683C55.8259 19.6683 57.1232 19.1883 58.1771 18.3789V19.4557H61.574V6.47533H58.1771V7.58226ZM58.1771 13.1435C58.0974 15.066 56.6203 16.6042 54.8138 16.6042C53.0072 16.6042 51.4468 14.9784 51.4468 12.9806C51.4468 10.9828 52.9576 9.3569 54.8138 9.3569C56.6698 9.3569 58.0974 10.8952 58.1771 12.8177V13.1426V13.1435Z" fill="#A3A3A3"/>
</g>
</g>
<defs>
<clipPath id="clip0_4011_4063">
<rect width="65.45" height="19.9986" fill="white" transform="translate(0.915771 0.383484)"/>
</clipPath>
</defs>
</svg>
