<svg width="78" height="25" viewBox="0 0 78 25" fill="none" xmlns="http://www.w3.org/2000/svg">
<g clip-path="url(#clip0_4011_4074)">
<path d="M19.3706 24.3826L61.9453 20.4961H15.6804L19.3706 24.3826Z" fill="#A3A3A3"/>
<path d="M71.8185 4.46436C70.9451 4.48585 70.0961 4.77265 69.3738 5.29026V4.75586H66.5139V17.9701H69.3738V10.2457C69.3537 9.90721 69.3995 9.56803 69.5087 9.24897C69.6178 8.93 69.7878 8.6379 70.0082 8.39074C70.2286 8.14359 70.4949 7.94661 70.7903 7.81197C71.0857 7.67732 71.4043 7.60785 71.7262 7.60785C72.0482 7.60785 72.3667 7.67732 72.6622 7.81197C72.9577 7.94661 73.2238 8.14359 73.4442 8.39074C73.6647 8.6379 73.8347 8.93 73.9438 9.24897C74.0529 9.56803 74.0989 9.90721 74.0787 10.2457V18.0187H76.9385V10.2457C76.9385 7.03921 74.8629 4.46436 71.8185 4.46436Z" fill="#A3A3A3"/>
<path d="M59.9154 4.41504C56.5943 4.41504 54.2418 7.4757 54.2418 11.3623C54.2418 15.4432 57.1939 18.3094 60.1922 18.3094C61.7143 18.3094 63.6055 17.7751 65.22 15.346L62.683 13.7914C60.7457 16.8034 57.4707 15.2974 57.1016 12.2367H65.3122C66.0502 7.57287 63.1443 4.41504 59.9154 4.41504ZM57.2862 9.66186C57.8859 6.60123 61.8527 6.4069 62.4062 9.66186H57.2862Z" fill="#A3A3A3"/>
<path d="M48.155 13.5972C48.1296 14.2027 48.2202 14.8075 48.4215 15.3754C48.6228 15.9432 48.9308 16.4625 49.3269 16.9023C49.7229 17.3421 50.199 17.6935 50.7267 17.9352C51.2545 18.177 51.8231 18.3043 52.3986 18.3096C53.3709 18.2737 54.3205 17.9904 55.1662 17.4837L53.3212 14.8603C53.0378 15.0732 52.7004 15.1916 52.3525 15.2003C52.1624 15.1947 51.9755 15.1479 51.8034 15.0628C51.6313 14.9775 51.4777 14.856 51.3522 14.7055C51.2266 14.5552 51.1319 14.379 51.0739 14.1883C51.0158 13.9977 50.9958 13.7964 51.0148 13.5972V7.91306H53.4595V4.75524H51.0148V1.45166H48.155V4.75524H46.6328V7.91306H48.155V13.5972Z" fill="#A3A3A3"/>
<path d="M40.3554 18.3102C41.2288 18.2887 42.0778 18.0019 42.8001 17.4844V17.9701H45.66V4.75586H42.8001V12.529C42.8202 12.8674 42.7743 13.2066 42.6651 13.5256C42.556 13.8446 42.3862 14.1367 42.1657 14.3839C41.9453 14.631 41.6791 14.828 41.3837 14.9626C41.0882 15.0973 40.7696 15.1667 40.4477 15.1667C40.1257 15.1667 39.8071 15.0973 39.5117 14.9626C39.2162 14.828 38.9501 14.631 38.7297 14.3839C38.5092 14.1367 38.3393 13.8446 38.2301 13.5256C38.121 13.2066 38.0751 12.8674 38.0953 12.529V4.75586H35.2354V12.529C35.2354 15.7354 37.3111 18.3102 40.3554 18.3102Z" fill="#A3A3A3"/>
<path d="M27.3528 12.5769L31.5965 18.0181H35.5633L29.8898 10.9737L34.7792 4.75519H30.8123L27.3528 9.37052V0.382812H24.4469V18.0181H27.3528V12.5769Z" fill="#A3A3A3"/>
<path d="M19.971 17.3864V17.9695H22.8309V4.75512H19.971V5.3381C19.1916 4.74575 18.2567 4.42319 17.2956 4.41504C14.0668 4.41504 11.5759 7.52429 11.5759 11.3623C11.5759 15.2003 14.0207 18.3094 17.2956 18.3094C18.2579 18.3089 19.1949 17.9856 19.971 17.3864ZM14.4819 11.4109C14.4819 9.32186 15.6351 7.67003 17.2495 7.67003C18.8639 7.67003 19.971 9.32186 19.971 11.4109C19.971 13.4999 18.8639 15.1517 17.2495 15.1517C15.6351 15.1517 14.4819 13.4999 14.4819 11.4109Z" fill="#A3A3A3"/>
<path d="M10.6531 7.13576C10.6519 5.62864 10.0829 4.18361 9.07111 3.11791C8.05927 2.05221 6.68729 1.45294 5.25634 1.45166H0.366943V17.9696H3.36516V12.8684H5.44085L9.08484 17.9696H12.8211L8.39294 11.7997C9.0996 11.2726 9.67437 10.573 10.068 9.76067C10.4617 8.94843 10.6624 8.04769 10.6531 7.13576ZM5.30247 9.75922H3.36516V4.60949H5.30247C5.95085 4.60949 6.57266 4.88077 7.03114 5.36364C7.4896 5.84652 7.74717 6.50144 7.74717 7.18434C7.74717 7.86723 7.4896 8.52215 7.03114 9.00499C6.57266 9.48793 5.95085 9.75922 5.30247 9.75922Z" fill="#A3A3A3"/>
</g>
<defs>
<clipPath id="clip0_4011_4074">
<rect width="77" height="24" fill="white" transform="translate(0.365967 0.382812)"/>
</clipPath>
</defs>
</svg>
