<svg width="143" height="36" viewBox="0 0 143 36" fill="none" xmlns="http://www.w3.org/2000/svg">
<g clip-path="url(#clip0_4011_4012)">
<mask id="mask0_4011_4012" style="mask-type:luminance" maskUnits="userSpaceOnUse" x="0" y="0" width="143" height="36">
<path d="M142.369 0.882568H0.285889V35.4286H142.369V0.882568Z" fill="white"/>
</mask>
<g mask="url(#mask0_4011_4012)">
<path d="M34.5446 31.1345V29.8182H28.8679V35.3121H30.2923V33.2358H33.5189V31.9484H30.2923V31.1345H34.5446Z" fill="#A3A3A3"/>
<path d="M47.8783 29.8181H46.4539V35.312H47.8783V29.8181Z" fill="#A3A3A3"/>
<path d="M59.7126 31.1263H62.2582V35.3121H63.6826V31.1263H66.2281V29.8182H59.7126V31.1263Z" fill="#A3A3A3"/>
<path d="M82.9436 33.0279L78.467 29.739H77.9812V35.3119H79.4097V32.0853L83.9025 35.4282H84.3725V29.8179H82.9436V33.0279Z" fill="#A3A3A3"/>
<path d="M98.0089 33.1403H101.024V31.8571H98.0089V31.1345H102.186V29.8182H96.5847V35.3121H102.39V33.9916H98.0089V33.1403Z" fill="#A3A3A3"/>
<path d="M117.963 31.8572L116.426 31.7865C115.404 31.7409 115.404 31.5624 115.404 31.4668C115.404 31.1719 115.99 30.9975 116.966 30.9975C118.212 30.9975 118.826 31.2384 119.303 31.5L119.578 31.6495L120.201 30.4909L119.927 30.3414C119.146 29.9137 118.258 29.7351 116.962 29.7351C115.068 29.7351 113.98 30.3913 113.98 31.5291C113.98 32.9784 115.641 33.0697 116.268 33.1029L117.804 33.1735C118.943 33.2275 118.943 33.4019 118.943 33.5556C118.943 33.921 118.294 34.1411 117.211 34.1411C115.907 34.1411 115.126 33.8089 114.707 33.5307L114.453 33.3604L113.689 34.4609L113.959 34.6353C114.765 35.1585 115.798 35.4035 117.211 35.4035C119.229 35.4035 120.388 34.7059 120.388 33.4933C120.388 31.9734 118.748 31.8945 117.963 31.8572Z" fill="#A3A3A3"/>
<path d="M135.869 31.8569L134.333 31.7863C133.311 31.7406 133.311 31.562 133.311 31.4665C133.311 31.1717 133.893 30.9973 134.873 30.9973C136.118 30.9973 136.737 31.2381 137.214 31.4956L137.488 31.6451L138.112 30.4865L137.838 30.337C137.053 29.9093 136.168 29.7307 134.873 29.7307C132.978 29.7307 131.895 30.3869 131.895 31.5247C131.895 32.974 133.552 33.0653 134.183 33.0985L135.719 33.1691C136.858 33.2231 136.858 33.3975 136.858 33.5512C136.858 33.9166 136.209 34.1367 135.126 34.1367C133.822 34.1367 133.041 33.8045 132.622 33.5263L132.368 33.3601L131.604 34.4565L131.874 34.6309C132.68 35.1541 133.713 35.3991 135.126 35.3991C137.144 35.3991 138.298 34.7015 138.298 33.4889C138.298 31.969 136.658 31.8901 135.873 31.8527L135.869 31.8569Z" fill="#A3A3A3"/>
<path d="M25.9472 12.7756H28.7876V13.984L28.9289 13.8221L29.1075 13.602C29.6764 12.921 30.4778 12.5763 31.3831 12.5348H31.7236V15.1094C31.5824 15.0679 31.4412 15.0471 31.3001 15.0305C29.6888 14.8893 28.904 15.7157 28.904 17.3062V23.2071H25.9431V12.7756H25.9472Z" fill="#A3A3A3"/>
<path d="M35.1243 16.8617C35.5894 16.7994 36.0504 16.7786 36.5113 16.8409C37.4789 16.9406 38.1226 17.1815 38.6666 17.5842V16.8617C38.6666 15.7945 37.9813 15.1301 36.2705 14.9266C35.6268 14.8476 34.6218 14.8476 33.4923 14.9888C33.3304 15.0096 33.1684 15.0304 33.0106 15.0677V12.8128C33.6127 12.7131 34.136 12.6716 34.7215 12.6301C39.6133 12.4474 41.507 14.0379 41.507 17.0402V23.2028H38.5876V22.2767C38.488 22.3556 38.3676 22.4595 38.2679 22.5384C37.4622 23.1031 36.5985 23.3856 35.4897 23.3647C32.9732 23.3647 31.4824 21.8158 31.5613 20.1423C31.5987 18.5103 32.8694 17.1399 35.1243 16.8617ZM36.2538 21.5542C36.5155 21.575 36.7563 21.575 36.9971 21.5335C37.4622 21.4711 37.782 21.3507 38.0436 21.1721C38.787 20.6905 38.87 19.7229 38.3052 19.1996C38.0229 18.9381 37.5578 18.7179 36.9971 18.6556C35.4482 18.4521 34.5596 19.1581 34.5014 20.1049C34.5181 20.8482 35.1036 21.4546 36.2538 21.5542Z" fill="#A3A3A3"/>
<path d="M43.7292 12.7754H46.5697V13.9049C46.6486 13.826 46.7317 13.743 46.8105 13.6641C47.6369 12.9415 48.4799 12.5969 49.489 12.5761C52.0262 12.5138 53.596 14.2247 53.596 17.2064V23.2069H50.6352V17.5884C50.6559 16.056 50.1119 15.2712 49.0447 14.9929C47.5747 14.6317 46.6901 15.4373 46.6901 17.0485V23.2111H43.7292V12.7754Z" fill="#A3A3A3"/>
<path d="M55.3825 17.0445C55.6026 15.6367 56.3708 14.4283 57.4754 13.6434C59.5102 12.1942 62.1679 12.4973 63.4137 13.984V12.7756H66.2541V23.1447C66.2541 26.0641 64.2982 27.8787 60.3116 27.9369C59.7096 27.9369 59.1032 27.8954 58.4803 27.7957V25.2169C59.0451 25.3789 59.6057 25.4577 60.1705 25.437C62.305 25.3955 63.2725 24.511 63.2725 22.9827V22.2187C62.2053 23.4479 60.1705 23.9088 58.1772 23.0036C56.6075 22.2976 55.561 20.8691 55.3368 19.0377C55.2994 18.7138 55.2537 18.3733 55.2745 18.0494C55.2745 17.7089 55.316 17.385 55.3741 17.0445M58.3142 18.4522C58.5177 20.2254 59.7635 21.1888 61.3747 20.9106C62.4835 20.7279 63.2476 19.8642 63.4096 18.473C63.4511 18.1491 63.4511 17.8293 63.4096 17.5262C63.2102 15.8942 62.2426 15.0097 60.8515 15.0097C59.4604 15.0097 58.5136 15.8942 58.3142 17.5054C58.2935 17.6674 58.2727 17.8293 58.2727 17.9872C58.2727 18.1449 58.2935 18.2902 58.3142 18.4522Z" fill="#A3A3A3"/>
<path d="M79.2313 12.7756H80.3982V10.1179L81.9057 9.49506V12.7756H84.7048L84.4222 13.8844H81.9057V19.6981L81.9472 20.3459C81.9679 21.5751 82.732 22.2396 84.3014 22.1399C84.4222 22.1399 84.5422 22.1191 84.6631 22.0984V23.2652C84.5422 23.2861 84.4222 23.3068 84.3014 23.3068C81.3408 23.5476 80.3982 22.5219 80.3982 19.4199V13.8844H79.0486L79.2313 12.7756Z" fill="#A3A3A3"/>
<path d="M85.9785 8.70599L87.5069 8.38208V14.4616C87.6894 14.2 87.9094 13.9591 88.1502 13.739C88.736 13.195 89.4419 12.8337 90.2227 12.6718C93.2627 12.0282 95.5177 13.9799 95.5177 17.1401V23.1988H93.9852V17.6425C93.9852 15.0845 92.8177 13.7972 90.7835 13.8387C88.7485 13.8594 87.5027 15.2091 87.5027 17.3809V23.1988H85.9744V8.70599H85.9785Z" fill="#A3A3A3"/>
<path d="M97.598 15.8403C98.308 14.0919 99.828 12.9043 101.721 12.6136C104.948 12.1236 107.735 14.4366 107.888 17.6715C107.892 17.8833 107.888 18.1118 107.871 18.336H98.7855C98.773 18.4024 98.7772 18.527 98.773 18.61C98.8639 19.9513 99.5989 21.0726 100.861 21.7121C102.436 22.5218 104.337 22.2104 105.762 20.8276C105.82 20.7611 105.903 20.6988 105.966 20.6116L107.103 21.4048C106.787 21.7993 106.422 22.1357 106.003 22.4388C104.603 23.4313 102.955 23.7303 101.244 23.261C98.1747 22.4138 96.6672 19.8268 97.278 16.8867C97.353 16.5296 97.4522 16.1808 97.5855 15.8443M106.393 17.2272L106.385 17.0362L106.351 16.7995C106.331 16.6333 106.31 16.5586 106.244 16.3303C105.807 14.8103 104.446 13.768 102.739 13.7348C101.007 13.7182 99.5789 14.7439 99.0097 16.4258C98.9389 16.6791 98.8639 16.949 98.8522 17.2189L106.389 17.2272H106.393Z" fill="#A3A3A3"/>
<path d="M116.06 12.4931C118.917 12.9167 120.69 15.0304 120.69 17.9497C120.69 20.8691 118.917 22.9827 116.06 23.4063C112.256 23.9503 109.473 21.492 109.473 17.9497C109.473 14.4075 112.252 11.9491 116.06 12.4931ZM114.407 22.036C114.852 22.1148 115.313 22.1148 115.773 22.036C118.07 21.6331 119.457 19.6399 119.017 17.0611C118.854 16.1558 118.473 15.4291 117.85 14.8477C117.143 14.1832 116.197 13.822 115.093 13.822C113.988 13.822 113.037 14.1832 112.335 14.8477C111.529 15.5951 111.089 16.6416 111.089 17.9497C111.089 20.1257 112.377 21.6954 114.411 22.036" fill="#A3A3A3"/>
<path d="M122.713 12.7756H124.204V14.2456C124.262 14.1667 124.304 14.0836 124.366 14.0048C125.089 12.9998 126.015 12.4932 127.223 12.4766C127.364 12.4766 127.506 12.4766 127.646 12.4974V13.9259C127.506 13.9051 127.343 13.8843 127.181 13.8843C126.256 13.8428 125.45 14.1667 124.906 14.7689C124.441 15.3129 124.241 15.8776 124.241 16.8036V23.2071H122.709V12.7756H122.713Z" fill="#A3A3A3"/>
<path d="M128.892 12.7756H130.425V18.473C130.425 20.6657 131.168 21.6955 132.9 22.0153C133.365 22.0983 133.826 22.0983 134.291 21.9945C136.043 21.6706 136.849 20.6241 136.849 18.7928V12.7714H138.361V22.7586C138.361 25.6363 136.267 27.53 131.999 27.2683C131.737 27.2683 131.496 27.2268 131.256 27.2061V25.9188C131.496 25.9603 131.741 25.9769 131.982 25.9977C135.304 26.1803 136.836 24.8308 136.836 22.4928V21.546C136.757 21.6664 136.654 21.7661 136.575 21.8699C135.67 22.8748 134.623 23.3399 133.17 23.3399C130.653 23.3399 129.083 21.8283 128.921 19.5153C128.901 19.233 128.901 19.2205 128.901 18.6308V12.7714L128.892 12.7756Z" fill="#A3A3A3"/>
<path d="M141.28 8.92621C142.359 8.92621 143.198 9.76501 143.198 10.8115C143.198 11.858 142.359 12.7093 141.267 12.7093C140.175 12.7093 139.324 11.8829 139.324 10.8115C139.324 9.74009 140.187 8.92621 141.267 8.92621H141.28ZM141.255 9.30409C140.428 9.30409 139.806 9.98101 139.806 10.8115C139.806 11.6421 140.428 12.3189 141.276 12.3189C142.101 12.3314 142.712 11.6503 142.712 10.8115C142.712 9.97267 142.101 9.30409 141.263 9.30409H141.251H141.255ZM140.968 11.7874H140.532V9.91451C140.706 9.88134 140.947 9.84393 141.255 9.84393C141.611 9.84393 141.774 9.90209 141.911 9.99342C142.015 10.0723 142.094 10.2218 142.094 10.3963C142.094 10.6163 141.931 10.7742 141.703 10.8448V10.8697C141.886 10.9278 141.99 11.0773 142.048 11.3306C142.106 11.6172 142.139 11.7334 142.185 11.7915H141.716C141.657 11.7209 141.624 11.5632 141.566 11.3431C141.533 11.1354 141.416 11.0441 141.176 11.0441H140.968V11.7915V11.7874ZM140.981 10.7284H141.188C141.429 10.7284 141.624 10.6496 141.624 10.4544C141.624 10.28 141.496 10.1678 141.221 10.1678C141.105 10.1678 141.026 10.1803 140.981 10.1928V10.7326V10.7284Z" fill="#A3A3A3"/>
<path d="M78.6321 18.7847C78.6487 18.5024 78.6487 18.195 78.6487 17.9085C78.5656 14.8522 76.4727 12.6969 73.5118 12.5142C72.7892 12.4769 72.075 12.5682 71.4022 12.8008C69.5709 13.4361 68.321 14.9103 67.9016 16.7749C67.2745 19.5447 68.7778 22.4391 71.9047 23.2945C74.0185 23.8884 76.0159 23.3194 77.5607 21.704C77.652 21.6044 77.7185 21.5172 77.8098 21.4175L75.5425 19.881C75.4885 19.9267 75.4511 19.9807 75.3972 20.0264C74.9777 20.4749 74.5707 20.7364 74.1181 20.861C73.3623 21.0894 72.6273 21.0272 72.0501 20.6991C71.232 20.2589 70.7877 19.4658 70.8292 18.7889H70.8542H78.6321V18.7847ZM73.5949 14.6694C74.8656 14.6902 75.8457 15.5332 75.9868 16.8039V16.9244H70.933C70.9746 16.7707 70.9995 16.617 71.0617 16.4675C71.4646 15.3255 72.4529 14.6404 73.5949 14.6694Z" fill="#A3A3A3"/>
<path d="M25.358 24.4362C23.3979 24.7186 22.4179 23.0866 23.0616 21.6747C23.5972 20.4995 23.8589 19.2371 23.8589 17.8917C23.8589 16.5462 23.618 15.3087 23.0823 14.1335C22.6089 12.9873 23.4021 11.0647 25.3621 11.3512C26.4127 11.5048 27.2308 10.5165 27.2308 9.15443C27.2308 7.79235 26.4127 6.47596 25.3621 6.20189C24.2576 5.91535 23.3231 6.87877 23.3231 8.36542C23.3231 10.9567 21.903 11.999 20.7526 11.0273C19.7394 10.1635 18.5559 9.60707 17.198 9.39115C15.7944 9.16689 14.4116 9.3704 13.1741 9.91848C13.0495 9.97248 12.9166 10.0182 12.7796 10.0348C11.4133 10.2133 9.26223 8.60212 9.26223 5.52084C9.26223 3.58571 7.6095 1.59243 5.44597 1.03182C3.13294 0.433836 1.1272 1.68379 1.1272 3.86808C1.1272 6.05238 3.12879 8.11626 5.44597 8.45263C8.65181 8.91773 10.2714 10.828 9.95573 12.3769C9.9184 12.5513 9.84781 12.7174 9.75231 12.8669C8.85948 14.2456 8.31961 15.9565 8.31961 17.8875C8.31961 19.7312 8.8179 21.3757 9.64015 22.7253C9.73148 22.8748 9.79798 23.0367 9.82706 23.2112C10.0886 24.6314 8.70165 26.8407 5.43766 27.314C3.12463 27.6504 1.1189 29.7142 1.1189 31.8986C1.1189 34.0828 3.12463 35.337 5.44182 34.7348C7.60535 34.1742 9.25815 32.1851 9.25815 30.2541C9.25815 27.1687 11.1434 25.3622 12.6965 25.6779C12.8086 25.6987 12.9166 25.7402 13.0204 25.79C14.2995 26.3922 15.7362 26.6288 17.2021 26.3922C18.5518 26.1762 19.7228 25.6363 20.7319 24.7809C21.6746 24.0417 23.3191 24.8266 23.3191 27.4178C23.3191 28.9045 24.2534 29.8679 25.358 29.5814C26.4086 29.3073 27.2266 27.9909 27.2266 26.6288C27.2266 25.2667 26.4086 24.2784 25.358 24.4321V24.4362ZM17.1357 23.2071C14.3534 23.5185 11.8494 21.1557 11.8494 17.8917C11.8494 14.6277 14.3576 12.2647 17.1357 12.5762C19.6231 12.8586 21.4545 15.2257 21.4545 17.8917C21.4545 20.5577 19.6231 22.9288 17.1357 23.2071Z" fill="#A3A3A3"/>
</g>
</g>
<defs>
<clipPath id="clip0_4011_4012">
<rect width="142.5" height="35" fill="white" transform="translate(0.285889 0.882812)"/>
</clipPath>
</defs>
</svg>
