<svg width="128" height="27" viewBox="0 0 128 27" fill="none" xmlns="http://www.w3.org/2000/svg">
<mask id="mask0_4011_4004" style="mask-type:luminance" maskUnits="userSpaceOnUse" x="1" y="1" width="126" height="25">
<path d="M126.419 1.08209H1.32868V25.6832H126.419V1.08209Z" fill="white"/>
</mask>
<g mask="url(#mask0_4011_4004)">
<path d="M15.8392 5.70496L8.58394 10.3278L15.8392 14.9507L8.58394 19.5736L1.32868 14.9257L8.58394 10.3028L1.32868 5.70496L8.58394 1.08209L15.8392 5.70496ZM8.54641 21.0604L15.8017 16.4375L23.0569 21.0604L15.8017 25.6833L8.54641 21.0604ZM15.8392 14.9257L23.0945 10.3028L15.8392 5.70496L23.0569 1.08209L30.3122 5.70496L23.0569 10.3278L30.3122 14.9507L23.0569 19.5736L15.8392 14.9257Z" fill="#A3A3A3"/>
<path d="M36.0035 5.70447H41.8703C45.6105 5.70447 48.7001 7.86598 48.7001 12.8012V13.8382C48.7001 18.8109 45.8106 21.0474 41.9828 21.0474H36.0035V5.70447ZM39.2809 8.49068V18.2486H41.7952C43.9218 18.2486 45.3478 16.8619 45.3478 13.7758V12.9636C45.3478 9.87754 43.8467 8.49068 41.6826 8.49068H39.2809ZM50.439 8.64062H53.0659L53.4912 11.5268C53.9916 9.56519 55.2674 8.51568 57.5816 8.51568H58.3947V11.8266H57.0438C54.3793 11.8266 53.7289 12.7513 53.7289 15.375V21.0849H50.4889V8.64062H50.439ZM59.0452 15.1126V14.7628C59.0452 10.6022 61.7096 8.32826 65.3372 8.32826C69.0399 8.32826 71.6293 10.6022 71.6293 14.7628V15.1126C71.6293 19.1983 69.115 21.3972 65.3372 21.3972C61.3218 21.3598 59.0452 19.2107 59.0452 15.1126ZM68.3144 15.0751V14.7628C68.3144 12.4514 67.151 11.0645 65.2997 11.0645C63.4859 11.0645 62.285 12.3389 62.285 14.7628V15.0751C62.285 17.3117 63.4483 18.586 65.2997 18.586C67.151 18.5485 68.3144 17.3117 68.3144 15.0751ZM73.3305 8.64062H76.0325L76.3452 10.9895C76.9957 9.41526 78.3842 8.32826 80.4356 8.32826C83.6005 8.32826 85.6895 10.6022 85.6895 14.8127V15.1627C85.6895 19.2482 83.3753 21.4097 80.4356 21.4097C78.4718 21.4097 77.1207 20.5227 76.4577 19.0983V25.3829H73.293L73.3305 8.64062ZM82.3996 15.0751V14.8003C82.3996 12.3264 81.1237 11.102 79.4224 11.102C77.6087 11.102 76.4078 12.4889 76.4078 14.8003V15.0376C76.4078 17.2367 77.5711 18.6235 79.3849 18.6235C81.2488 18.586 82.3996 17.3991 82.3996 15.0751ZM90.4804 18.786L90.2052 21.0599H87.4282V4.48004H90.5931V10.8396C91.2936 9.21536 92.6821 8.32826 94.6459 8.32826C97.6232 8.36574 99.8247 10.4148 99.8247 14.5379V14.9252C99.8247 19.0484 97.7357 21.4097 94.5709 21.4097C92.4819 21.3598 91.131 20.3976 90.4804 18.786ZM96.4974 14.9252V14.6129C96.4974 12.3389 95.2589 11.0645 93.5201 11.0645C91.7439 11.0645 90.5054 12.4889 90.5054 14.6503V14.9252C90.5054 17.2367 91.7063 18.586 93.4827 18.586C95.384 18.586 96.4974 17.3991 96.4974 14.9252ZM101.213 15.1126V14.7628C101.213 10.6022 103.878 8.32826 107.505 8.32826C111.208 8.32826 113.797 10.6022 113.797 14.7628V15.1126C113.797 19.1983 111.246 21.3972 107.505 21.3972C103.49 21.3598 101.213 19.2107 101.213 15.1126ZM110.507 15.0751V14.7628C110.507 12.4514 109.344 11.0645 107.493 11.0645C105.679 11.0645 104.478 12.3389 104.478 14.7628V15.0751C104.478 17.3117 105.641 18.586 107.493 18.586C109.356 18.5485 110.507 17.3117 110.507 15.0751ZM118.038 14.6129L113.672 8.64062H117.412L119.926 12.3764L122.479 8.64062H126.182L121.753 14.5754L126.419 21.0599H122.754L119.902 16.9368L117.125 21.0599H113.296L118.038 14.6129Z" fill="#A3A3A3"/>
</g>
</svg>
