<svg width="86" height="27" viewBox="0 0 86 27" fill="none" xmlns="http://www.w3.org/2000/svg">
<path fill-rule="evenodd" clip-rule="evenodd" d="M85.2865 3.95216C85.3792 4.31656 84.9709 4.66663 84.7585 4.93443C82.9767 7.16581 81.0007 9.80558 78.6268 11.5004C78.798 12.3879 78.7072 13.5663 78.3972 14.2167C79.0189 15.0086 79.6789 15.7584 80.0633 16.7837C79.5575 19.4617 78.3829 21.5392 76.5054 22.8973C74.6729 24.2211 72.1967 24.7432 69.3876 25.3879C63.956 26.636 55.019 27.8669 50.9895 24.6323C46.6262 27.1841 37.8088 27.5208 33.7277 24.4811C30.8268 28.1415 19.383 27.8201 21.0855 20.5569C18.9631 22.1589 15.825 24.3673 12.8314 25.6146C9.35959 27.0588 2.78498 26.8962 3.44206 21.9915C3.52145 21.4072 3.76916 21.0772 4.04844 20.5569C3.0327 18.7904 2.39093 17.5642 1.7769 16.0282C1.18869 14.5553 0.291547 12.8786 0.186338 10.8213C-0.0336424 6.44464 3.3885 3.67001 6.77621 2.36638C8.5045 1.70166 9.90856 0.738524 11.6206 0.255522C14.179 -0.471373 16.3722 0.931727 16.5414 3.27404C19.5159 2.39412 23.138 1.42334 27.0661 1.99146C30.1937 -0.433116 36.3014 1.06467 40.3157 2.21622C41.2234 2.47733 42.4447 3.15162 43.117 3.12293C43.6861 3.09997 44.7144 2.33004 45.3111 2.06606C48.1278 0.820777 51.8101 -0.504849 55.8358 0.179006C56.5981 0.307169 57.2953 0.70983 58.1064 0.781564C58.6572 0.832254 59.3306 0.660095 59.9236 0.632359C69.3321 0.174224 77.1644 2.69158 85.2865 3.95216ZM58.9404 3.65184C57.9792 3.76661 57.2972 4.81488 56.6689 5.1611C56.7148 5.15632 56.7578 5.14867 56.7434 5.08459C56.8583 4.57003 57.0782 4.15971 57.1222 3.57628C52.0837 1.80686 47.18 4.39308 43.5714 6.36813C40.6848 7.94626 38.1101 9.80172 36.3024 11.6505C36.9557 10.541 37.6491 9.44308 38.4229 8.4063C39.2071 7.35326 40.0804 6.40064 40.7709 5.46334C39.2616 5.06928 37.7485 4.65323 36.2259 4.32996C34.0625 3.87087 31.0535 3.11049 29.2611 4.10424C28.7427 4.39117 28.318 5.09798 27.8227 5.1611C27.4123 5.21371 26.7371 4.9153 26.2321 4.85982C24.3823 4.65419 22.6798 4.8254 21.008 5.1611C19.4423 5.47386 16.1321 6.02859 15.7074 7.4996C15.4357 8.44456 16.0422 9.35987 15.9351 10.2943C15.8318 11.2125 14.9461 12.4291 14.4965 13.1617C13.9466 14.0608 13.3871 14.8565 12.4517 15.2745C11.8854 12.4626 12.5014 9.9615 12.9825 7.57707C13.279 6.10702 13.8768 4.60254 13.3622 3.12293C11.918 2.92303 10.7024 4.06216 9.27252 4.63124C6.58684 5.70244 3.59605 6.67898 3.21634 9.7644C3.00209 11.5023 3.65726 12.607 4.12496 13.8408C5.04915 16.3095 6.29706 18.6444 7.83594 20.7845C7.43424 21.519 6.49023 21.7104 6.39555 22.7452C6.82308 23.3478 7.71256 23.4281 8.59154 23.4252C11.1318 23.4196 13.2149 22.1455 15.102 21.0858C19.2108 18.7808 21.9711 15.2333 24.8701 11.8782C25.3789 11.2881 25.7979 10.5774 26.4606 10.2178C27.111 13.199 25.8457 14.7934 24.9447 17.2362C24.5975 18.1773 23.5024 21.1231 24.0361 22.5185C24.6214 24.0537 29.6054 24.1206 30.9263 23.125C31.592 22.6229 31.8569 21.4894 32.2146 20.7845C32.6708 19.8778 33.0659 19.0955 33.4255 18.294C33.4455 21.6004 35.9094 22.5712 38.573 23.2751C44.2351 24.7671 49.9451 22.1016 53.0344 20.2576C52.648 22.7069 53.6025 22.9527 55.5335 23.3517C60.5261 24.3788 65.5542 23.1938 69.6152 22.2182C73.3387 21.3249 76.3323 20.6937 76.8842 17.0095C76.2883 16.4959 74.7991 16.5599 73.7805 16.7092C70.7773 17.1472 67.8697 18.6603 63.8623 18.3685C63.1306 18.316 61.5515 18.0616 61.4377 17.6149C61.2617 16.9186 62.5128 16.4308 63.5609 16.2567C66.5642 15.7498 70.9064 16.2616 73.3253 15.3481C74.4864 14.912 75.8876 13.6514 75.747 12.2551C75.6551 11.312 74.4204 10.8185 73.2487 10.7467C69.9356 10.5401 67.5674 12.4683 64.0908 11.8026C64.525 11.2556 64.6035 10.3536 65.1486 9.91647C67.6918 9.86295 70.1623 10.366 72.5687 10.2178C75.9143 10.0093 77.8004 8.60429 79.3833 6.74593C79.5527 6.54508 79.9773 6.32988 79.8377 5.99225C74.0263 5.11041 66.1051 2.77574 58.9404 3.65184ZM47.4315 9.46126C47.0585 11.1541 46.279 13.0919 45.842 14.9704C48.2484 15.0048 50.7868 14.5151 53.2611 14.3668C53.5958 13.9211 53.7603 13.3052 53.9431 12.7064C54.4394 13.4066 54.7885 14.7169 54.3217 15.7249C50.5639 15.6724 47.8629 18.7406 44.1768 18.7435C42.526 18.7454 41.1229 17.7995 41.9043 15.9507C43.008 13.3444 45.7454 11.5234 47.4315 9.46126ZM56.2145 6.66846C56.9223 7.47282 58.4717 7.43839 59.3938 8.02851C58.1495 8.34701 56.5828 8.34509 55.4561 8.78123C55.722 8.08876 55.9601 7.37048 56.2145 6.66846Z" fill="#A3A3A3"/>
</svg>
