<svg width="67" height="24" viewBox="0 0 67 24" fill="none" xmlns="http://www.w3.org/2000/svg">
<g clip-path="url(#clip0_4011_4053)">
<mask id="mask0_4011_4053" style="mask-type:luminance" maskUnits="userSpaceOnUse" x="0" y="1" width="67" height="22">
<path d="M66.4366 1.80792H0.873413V22.9574H66.4366V1.80792Z" fill="white"/>
</mask>
<g mask="url(#mask0_4011_4053)">
<path d="M29.0132 1.82073L18.0356 10.0576C17.5197 8.03164 16.3274 6.2308 14.6464 4.93893C12.9656 3.64705 10.8919 2.93759 8.75203 2.92239H0.873413V21.8556H8.75203C10.9033 21.884 12.9992 21.1908 14.6891 19.8919C16.379 18.5931 17.5604 16.7675 18.0356 14.7205L29.0132 22.9573L39.9907 14.7205V21.8556H52.3733V18.0127H44.2058V2.90958H39.7019V10.0448L29.289 18.2816L27.0435 16.3602L32.1122 12.5172L37.4564 8.40511L34.3575 5.93276L23.9447 13.8878L21.6992 11.9663L32.1122 4.28026L29.0132 1.80792V1.82073ZM5.08847 6.7526H8.46318C9.1615 6.75393 9.85132 6.90251 10.4854 7.18815C11.1294 7.47711 11.7093 7.88618 12.1923 8.39229C12.7008 8.92501 13.1018 9.5465 13.3742 10.2241C13.9341 11.6644 13.9341 13.2547 13.3742 14.6949C13.1194 15.3704 12.7413 15.9954 12.258 16.5395C11.7883 17.0742 11.212 17.5101 10.5641 17.8205C9.89678 18.1348 9.16485 18.2969 8.42376 18.2945H5.08847V6.76542V6.7526ZM66.4236 18.0127V21.8556H54.0541V2.90958H58.558V18.0127H66.4366H66.4236Z" fill="#A3A3A3"/>
</g>
</g>
<defs>
<clipPath id="clip0_4011_4053">
<rect width="66.125" height="23" fill="white" transform="translate(0.788391 0.882812)"/>
</clipPath>
</defs>
</svg>
