<svg width="113" height="26" viewBox="0 0 113 26" fill="none" xmlns="http://www.w3.org/2000/svg">
<g clip-path="url(#clip0_4011_4038)">
<path d="M11.325 10.1388C11.325 11.2184 10.8664 12.1735 10.116 12.9209C9.28231 13.7514 8.0734 13.959 8.0734 14.6649C8.0734 15.6199 9.6158 15.3293 11.0957 16.8034C12.0753 17.7792 12.6798 19.0664 12.6798 20.5613C12.6798 23.5095 10.3036 25.8556 7.32304 25.8556C4.34245 25.8556 1.96631 23.5115 1.96631 20.5634C1.96631 19.0685 2.57077 17.7813 3.5504 16.8054C5.03027 15.3314 6.57268 15.622 6.57268 14.667C6.57268 13.9611 5.36377 13.7534 4.53004 12.923C3.77968 12.1755 3.32112 11.2205 3.32112 10.0994C3.32112 7.94012 5.0928 6.19612 7.26051 6.19612C7.67737 6.19612 8.05255 6.2584 8.3652 6.2584C8.92797 6.2584 9.21978 6.00926 9.21978 5.61478C9.21978 5.3864 9.11556 5.09574 9.11556 4.78431C9.11556 4.0784 9.72002 3.49707 10.4495 3.49707C11.1791 3.49707 11.7627 4.09916 11.7627 4.82583C11.7627 5.59402 11.1582 5.94697 10.6996 6.11307C10.3245 6.23764 10.0327 6.40374 10.0327 6.77745C10.0327 7.48128 11.325 8.16642 11.325 10.1388ZM10.9081 20.5634C10.9081 18.5079 9.38652 16.847 7.32304 16.847C5.25955 16.847 3.73799 18.5079 3.73799 20.5634C3.73799 22.598 5.25955 24.2797 7.32304 24.2797C9.38652 24.2797 10.9081 22.5959 10.9081 20.5634ZM9.67833 10.0973C9.67833 8.78928 8.61532 7.70966 7.32304 7.70966C6.03075 7.70966 4.96774 8.78928 4.96774 10.0973C4.96774 11.4053 6.03075 12.4849 7.32304 12.4849C8.61532 12.4849 9.67833 11.4053 9.67833 10.0973Z" fill="#A3A3A3"/>
<path d="M18.8283 6.40165C19.4953 6.40165 19.9955 6.89993 19.9955 7.52279C19.9955 8.14565 19.5161 8.64394 18.8491 8.64394C18.1613 8.64394 17.7861 8.20794 17.0983 8.20794C16.4313 8.20794 15.9102 8.68546 15.9102 9.49517V16.0352C15.9102 16.5334 15.5142 16.9279 15.014 16.9279C14.5346 16.9279 14.1386 16.5334 14.1386 16.0352V7.23213C14.1386 6.73384 14.5346 6.33936 15.014 6.33936C15.9102 6.33936 15.7435 7.1906 16.6398 7.1906C17.4943 7.1906 17.807 6.40165 18.8283 6.40165Z" fill="#A3A3A3"/>
<path d="M20.7662 11.6339C20.7662 8.49889 22.934 6.23584 25.9145 6.23584C28.645 6.23584 30.8127 8.22898 30.8127 10.9488C30.8127 11.5924 30.3959 12.0284 29.7914 12.0284H23.0173C22.7255 12.0284 22.6213 12.1322 22.6213 12.3606C22.6213 12.8796 23.0382 13.8347 23.6635 14.4575C24.2888 15.0804 25.1433 15.4541 26.3523 15.4541C27.2485 15.4541 28.0406 15.1219 28.645 14.6859C28.8326 14.5406 29.041 14.4575 29.2495 14.4575C29.6872 14.4575 30.0415 14.852 30.0415 15.2673C30.0415 15.5164 29.9581 15.724 29.7497 15.9109C28.8743 16.6375 27.6445 17.032 26.3106 17.032C23.0799 17.032 20.7662 14.7067 20.7662 11.6339ZM28.1448 8.64422C27.5612 8.06289 26.8108 7.77222 25.9145 7.77222C25.0183 7.77222 24.1845 8.12517 23.5801 8.72727C23.1007 9.20479 22.7672 9.82765 22.7672 10.2429C22.7672 10.4505 22.8923 10.5335 23.1632 10.5335H28.5825C28.8326 10.5335 28.9577 10.4505 28.9577 10.2429C28.9577 9.7446 28.5616 9.05946 28.1448 8.64422Z" fill="#A3A3A3"/>
<path d="M32.6051 11.6339C32.6051 8.49889 34.7728 6.23584 37.7534 6.23584C40.4839 6.23584 42.6516 8.22898 42.6516 10.9488C42.6516 11.5924 42.2347 12.0284 41.6303 12.0284H34.8562C34.5644 12.0284 34.4602 12.1322 34.4602 12.3606C34.4602 12.8796 34.877 13.8347 35.5023 14.4575C36.1276 15.0804 36.9822 15.4541 38.1911 15.4541C39.0874 15.4541 39.8794 15.1219 40.4839 14.6859C40.6715 14.5406 40.8799 14.4575 41.0883 14.4575C41.526 14.4575 41.8804 14.852 41.8804 15.2673C41.8804 15.5164 41.797 15.724 41.5886 15.9109C40.7132 16.6375 39.4834 17.032 38.1494 17.032C34.9187 17.032 32.6051 14.7067 32.6051 11.6339ZM39.9836 8.64422C39.4 8.06289 38.6497 7.77222 37.7534 7.77222C36.8571 7.77222 36.0234 8.12517 35.419 8.72727C34.9396 9.20479 34.6061 9.82765 34.6061 10.2429C34.6061 10.4505 34.7311 10.5335 35.0021 10.5335H40.4214C40.6715 10.5335 40.7965 10.4505 40.7965 10.2429C40.7965 9.7446 40.4005 9.05946 39.9836 8.64422Z" fill="#A3A3A3"/>
<path d="M53.0948 16.9282C52.5945 16.9282 52.1985 16.5337 52.1985 16.0355V10.3882C52.1985 8.91412 51.0313 7.79298 49.5305 7.79298C48.009 7.79298 46.8418 8.93489 46.8418 10.3882V16.0355C46.8418 16.5337 46.4457 16.9282 45.9455 16.9282C45.4661 16.9282 45.0701 16.5337 45.0701 16.0355V7.21165C45.0701 6.73412 45.4661 6.33965 45.9247 6.33965C46.8001 6.33965 46.7584 7.1286 47.2169 7.1286C47.6755 7.1286 48.3008 6.23584 49.9266 6.23584C52.1985 6.23584 53.9702 8.12517 53.9702 10.3882V16.0355C53.9702 16.5337 53.5741 16.9282 53.0948 16.9282Z" fill="#A3A3A3"/>
<path d="M65.0595 16.928C64.5593 16.928 64.1633 16.5335 64.1633 16.0352V10.388C64.1633 8.91388 62.996 7.79274 61.4953 7.79274C59.9738 7.79274 58.8065 8.93464 58.8065 10.388V16.0352C58.8065 16.5335 58.4105 16.928 57.9103 16.928C57.4309 16.928 57.0349 16.5335 57.0349 16.0352V2.04169C57.0349 1.5434 57.4309 1.14893 57.9103 1.14893C58.4105 1.14893 58.8065 1.5434 58.8065 2.04169V6.63007C58.8065 6.87921 58.9108 7.02455 59.1817 7.02455C59.6403 7.02455 60.2656 6.23559 61.8913 6.23559C64.1633 6.23559 65.9349 8.12493 65.9349 10.388V16.0352C65.9349 16.5335 65.5389 16.928 65.0595 16.928Z" fill="#A3A3A3"/>
<path d="M68.3718 11.6339C68.3718 8.62346 70.7896 6.23584 73.8327 6.23584C76.8759 6.23584 79.2937 8.62346 79.2937 11.6339C79.2937 14.6444 76.8759 17.032 73.8327 17.032C70.7917 17.032 68.3718 14.6444 68.3718 11.6339ZM77.5241 11.6339C77.5241 9.53698 75.9608 7.81374 73.8348 7.81374C71.7296 7.81374 70.1664 9.53698 70.1664 11.6339C70.1664 13.7309 71.7296 15.4541 73.8348 15.4541C75.9608 15.4541 77.5241 13.7309 77.5241 11.6339Z" fill="#A3A3A3"/>
<path d="M82.6068 6.33936C83.107 6.33936 83.503 6.73384 83.503 7.23213V12.8793C83.503 14.3534 84.6702 15.4746 86.171 15.4746C87.6925 15.4746 88.8597 14.3327 88.8597 12.8793V7.23213C88.8597 6.73384 89.2558 6.33936 89.756 6.33936C90.2354 6.33936 90.6314 6.73384 90.6314 7.23213V16.0559C90.6314 16.5334 90.2354 16.9279 89.7768 16.9279C88.9014 16.9279 88.9431 16.139 88.4846 16.139C88.026 16.139 87.4007 17.0317 85.7749 17.0317C83.503 17.0317 81.7313 15.1424 81.7313 12.8793V7.23213C81.7334 6.73384 82.1274 6.33936 82.6068 6.33936Z" fill="#A3A3A3"/>
<path d="M93.7783 16.2638C93.3823 16.0147 93.1113 15.7655 93.1113 15.288C93.1113 14.8313 93.4657 14.4783 93.9034 14.4783C94.4245 14.4783 94.6537 14.7897 95.0915 15.0181C95.6334 15.3295 96.2587 15.4956 97.0299 15.4956C98.4472 15.4956 99.1559 14.852 99.1559 14.0631C99.1559 12.9419 98.1137 12.7343 96.6964 12.3606C94.9455 11.9038 93.2572 11.3848 93.2572 9.37089C93.2572 7.58536 94.6329 6.23584 97.0716 6.23584C98.0304 6.23584 98.9266 6.48498 99.6353 6.92098C99.8854 7.06631 100.135 7.37774 100.135 7.7307C100.135 8.18746 99.7604 8.58193 99.281 8.58193C98.9683 8.58193 98.7182 8.37431 98.4055 8.1667C98.0929 7.95908 97.6343 7.77222 97.009 7.77222C95.6125 7.77222 95.0081 8.37431 95.0081 9.18403C95.0081 10.2429 96.0294 10.492 97.4884 10.845C99.1976 11.2602 100.886 11.8 100.886 13.8555C100.886 15.641 99.5519 17.032 96.9882 17.032C95.7376 17.032 94.6121 16.7829 93.7783 16.2638Z" fill="#A3A3A3"/>
<path d="M102.553 11.6339C102.553 8.49889 104.721 6.23584 107.701 6.23584C110.432 6.23584 112.599 8.22898 112.599 10.9488C112.599 11.5924 112.182 12.0284 111.578 12.0284H104.804C104.512 12.0284 104.408 12.1322 104.408 12.3606C104.408 12.8796 104.825 13.8347 105.45 14.4575C106.075 15.0804 106.93 15.4541 108.139 15.4541C109.035 15.4541 109.827 15.1219 110.432 14.6859C110.619 14.5406 110.828 14.4575 111.036 14.4575C111.474 14.4575 111.828 14.852 111.828 15.2673C111.828 15.5164 111.745 15.724 111.536 15.9109C110.661 16.6375 109.431 17.032 108.097 17.032C104.869 17.032 102.553 14.7067 102.553 11.6339ZM109.933 8.64422C109.35 8.06289 108.599 7.77222 107.703 7.77222C106.807 7.77222 105.973 8.12517 105.369 8.72727C104.889 9.20479 104.556 9.82765 104.556 10.2429C104.556 10.4505 104.681 10.5335 104.952 10.5335H110.371C110.621 10.5335 110.746 10.4505 110.746 10.2429C110.746 9.7446 110.35 9.05946 109.933 8.64422Z" fill="#A3A3A3"/>
</g>
<defs>
<clipPath id="clip0_4011_4038">
<rect width="112" height="25" fill="white" transform="translate(0.785889 0.882812)"/>
</clipPath>
</defs>
</svg>
