<svg width="195" height="195" viewBox="0 0 195 195" fill="none" xmlns="http://www.w3.org/2000/svg">
<circle cx="97.6805" cy="97.6383" r="96.9025" fill="#FF3310"/>
<path d="M109.57 82.8266L86.5462 82.8265L86.5462 86.0729L104.01 86.0845L80.7902 109.304L83.0926 111.607L106.312 88.3869L106.324 105.851H109.57L109.57 82.8266Z" fill="white"/>
<path d="M52.2634 56.0647L42.0117 44.5529L44.4829 42.3509L52.765 51.6361L57.9765 46.9874L59.9583 49.2016L52.2634 56.0647Z" fill="white"/>
<path d="M63.2488 47.012L56.031 33.3961L65.2306 28.5149L66.5885 31.084L60.2516 34.4482L64.7535 42.926L71.2251 39.4884L72.583 42.0574L63.2488 47.012ZM61.585 40.5894L60.2638 38.0938L67.1635 34.4359L68.4848 36.9316L61.585 40.5894Z" fill="white"/>
<path d="M79.7643 39.8307L76.7915 27.7439L72.4241 28.8205L71.7146 25.9334L83.7769 22.9606L84.4864 25.8477L79.9967 26.9488L82.9695 39.0355L79.7643 39.8307Z" fill="white"/>
<path d="M90.224 28.1108L89.2086 26.9975C89.7958 26.7162 90.2607 26.3736 90.6155 25.9821C90.9702 25.5907 91.1293 25.2604 91.1171 24.9912C91.1048 24.82 91.0314 24.6487 90.8968 24.5141C90.7623 24.3673 90.6032 24.245 90.3953 24.1349C90.0405 23.8902 89.7958 23.67 89.6613 23.462C89.5267 23.2541 89.4533 23.0339 89.4288 22.777C89.4044 22.3488 89.5389 22.0062 89.8203 21.7371C90.1017 21.468 90.4931 21.3212 90.9702 21.2967C91.4107 21.2722 91.8144 21.3579 92.1691 21.5658C92.5239 21.7738 92.8175 22.0674 93.0499 22.4589C93.2824 22.8504 93.4047 23.303 93.4414 23.8413C93.4659 24.2817 93.4047 24.7099 93.2579 25.138C93.1111 25.5662 92.8909 25.9699 92.5973 26.3614C92.3037 26.7406 91.9612 27.0954 91.5575 27.389C91.1537 27.6948 90.7133 27.9273 90.224 28.1108Z" fill="white"/>
<path d="M103.216 38.3386C102.274 38.2285 101.417 38.0083 100.671 37.678C99.9249 37.3477 99.2643 36.9195 98.7138 36.4057C98.1633 35.8919 97.6862 35.268 97.2825 34.5707L99.6191 32.4787C100.219 33.5553 100.842 34.3138 101.503 34.7542C102.164 35.1946 102.91 35.4637 103.742 35.5616C104.194 35.6105 104.61 35.5983 104.977 35.5127C105.344 35.427 105.65 35.2802 105.883 35.0722C106.115 34.8765 106.25 34.6074 106.286 34.2893C106.311 34.0569 106.286 33.8367 106.213 33.6287C106.14 33.4207 106.005 33.225 105.834 33.0537C105.662 32.8824 105.454 32.7112 105.21 32.5521C104.965 32.3931 104.684 32.2585 104.378 32.124C104.072 31.9894 103.73 31.8671 103.363 31.7692C102.567 31.4756 101.882 31.1697 101.307 30.8272C100.732 30.4847 100.255 30.0932 99.9005 29.6406C99.5457 29.1879 99.2888 28.6986 99.1542 28.1603C99.0196 27.622 98.9952 27.0348 99.0686 26.3864C99.142 25.7258 99.3622 25.1386 99.7292 24.6126C100.084 24.0865 100.549 23.6461 101.112 23.3036C101.674 22.961 102.31 22.7164 103.02 22.5818C103.73 22.4472 104.451 22.4228 105.21 22.5084C106.14 22.6307 106.947 22.8265 107.62 23.1201C108.293 23.4137 108.868 23.7807 109.333 24.2456C109.797 24.7104 110.177 25.2487 110.458 25.8604L108.134 27.622C107.877 27.1816 107.583 26.7901 107.265 26.4721C106.947 26.154 106.58 25.8971 106.176 25.7136C105.773 25.5301 105.357 25.4078 104.916 25.3588C104.439 25.2977 104.011 25.3099 103.644 25.3955C103.277 25.4812 102.983 25.628 102.763 25.8482C102.543 26.0684 102.408 26.3375 102.372 26.6556C102.335 26.9125 102.372 27.1571 102.482 27.3774C102.592 27.5976 102.751 27.7933 102.983 27.9768C103.216 28.1603 103.497 28.3316 103.827 28.4906C104.158 28.6496 104.537 28.7964 104.953 28.931C105.736 29.1879 106.433 29.4815 107.045 29.8241C107.657 30.1666 108.17 30.5458 108.586 30.974C109.002 31.4022 109.296 31.8793 109.492 32.4176C109.675 32.9558 109.736 33.5308 109.663 34.1547C109.54 35.1946 109.186 36.0387 108.598 36.7115C108.011 37.3844 107.265 37.8615 106.348 38.1429C105.43 38.4242 104.39 38.4732 103.216 38.3386Z" fill="white"/>
<path d="M124.698 45.2258C123.866 44.7731 123.156 44.2471 122.569 43.6721C121.982 43.0971 121.542 42.4488 121.223 41.7637C120.905 41.0664 120.685 40.3324 120.575 39.5249L123.523 38.4484C123.682 39.6717 123.976 40.6137 124.429 41.2621C124.881 41.9227 125.481 42.4488 126.215 42.8525C126.618 43.0727 126.998 43.2072 127.389 43.2684C127.768 43.3296 128.099 43.3051 128.392 43.195C128.686 43.0971 128.906 42.9014 129.053 42.62C129.163 42.4121 129.224 42.2041 129.224 41.9717C129.224 41.7514 129.187 41.519 129.09 41.2988C128.992 41.0664 128.857 40.8462 128.686 40.6015C128.515 40.3691 128.307 40.1244 128.074 39.8919C127.842 39.6595 127.56 39.4148 127.255 39.1824C126.618 38.6197 126.105 38.0692 125.689 37.5431C125.273 37.0048 124.991 36.4666 124.82 35.916C124.649 35.3655 124.6 34.815 124.673 34.2645C124.747 33.714 124.93 33.1635 125.248 32.6008C125.566 32.0258 125.982 31.5487 126.521 31.1939C127.047 30.8391 127.646 30.6067 128.294 30.4966C128.943 30.3865 129.628 30.3987 130.337 30.5333C131.047 30.6679 131.732 30.9125 132.405 31.2795C133.225 31.7322 133.897 32.2093 134.423 32.7353C134.937 33.2491 135.341 33.8119 135.598 34.4236C135.867 35.023 136.014 35.6591 136.051 36.332L133.249 37.1027C133.176 36.5889 133.041 36.1363 132.87 35.7203C132.699 35.3044 132.442 34.9374 132.148 34.6071C131.842 34.289 131.5 34.0198 131.12 33.8119C130.692 33.5794 130.301 33.4326 129.934 33.3715C129.567 33.3103 129.236 33.347 128.943 33.4571C128.649 33.5672 128.429 33.7752 128.282 34.0565C128.16 34.289 128.099 34.5214 128.123 34.7661C128.148 35.0108 128.221 35.2554 128.368 35.5123C128.515 35.7692 128.71 36.0261 128.967 36.3075C129.224 36.5767 129.518 36.858 129.848 37.1394C130.484 37.6654 131.023 38.2037 131.463 38.742C131.903 39.2803 132.234 39.8308 132.466 40.3813C132.686 40.9318 132.796 41.4945 132.772 42.0573C132.747 42.62 132.588 43.1828 132.283 43.7333C131.781 44.6508 131.145 45.3114 130.35 45.7151C129.554 46.1188 128.686 46.2779 127.719 46.2045C126.729 46.1066 125.725 45.7885 124.698 45.2258Z" fill="white"/>
<path d="M135.463 52.407L143.88 43.2441L140.565 40.2102L142.571 38.0204L151.722 46.4248L149.715 48.6146L146.314 45.4828L137.898 54.6458L135.463 52.407Z" fill="white"/>
<path d="M141.91 58.2424L158.083 54.6947L159.722 57.1414L150.266 70.7206L148.382 67.9069L153.544 60.7013C153.691 60.4934 153.887 60.2365 154.119 59.9306C154.352 59.6248 154.609 59.2945 154.878 58.9642C155.147 58.6216 155.404 58.3036 155.649 57.9977C155.893 57.6919 156.101 57.4472 156.285 57.2637L156.615 57.753C156.297 57.8631 155.954 57.9732 155.6 58.0711C155.245 58.1812 154.878 58.2913 154.499 58.4014C154.119 58.5115 153.752 58.6094 153.385 58.695C153.018 58.7807 152.664 58.8663 152.321 58.9642L143.758 60.9705L141.91 58.2424ZM146.168 58.7807L148.969 58.2057L152.908 64.0778L151.33 66.4633L146.168 58.7807Z" fill="white"/>
<path d="M151.367 73.4854L165.986 68.6042L168.151 75.0758C168.457 75.9811 168.518 76.8741 168.359 77.7427C168.2 78.6113 167.833 79.382 167.283 80.0426C166.732 80.7032 166.01 81.1803 165.117 81.4739C164.237 81.7675 163.368 81.8165 162.512 81.633C161.655 81.4495 160.897 81.058 160.224 80.4585C159.551 79.8591 159.074 79.1129 158.768 78.2076L157.618 74.7577L152.37 76.5071L151.367 73.4854ZM154.132 81.7798L159.49 75.8587L161.092 78.9049L155.33 85.4254L154.132 81.7798ZM160.163 73.9136L161.264 77.2167C161.386 77.5959 161.582 77.8895 161.851 78.1219C162.12 78.3544 162.438 78.4889 162.805 78.5379C163.172 78.5868 163.551 78.5501 163.931 78.4155C164.347 78.281 164.677 78.0608 164.922 77.7794C165.166 77.498 165.325 77.1555 165.374 76.7518C165.435 76.3481 165.386 75.9077 165.227 75.455L164.261 72.5557L160.163 73.9136Z" fill="white"/>
<path d="M155.991 91.9213L168.396 91.0283L168.078 86.5508L171.038 86.3428L171.932 98.7354L168.971 98.9434L168.641 94.3313L156.236 95.2244L155.991 91.9213Z" fill="white"/>
<path d="M155.636 109.648L168.408 120.181L167.491 122.982L150.975 123.912L152.028 120.695L160.885 120.315C161.129 120.303 161.46 120.291 161.839 120.291C162.23 120.291 162.634 120.291 163.062 120.291C163.49 120.291 163.906 120.291 164.298 120.303C164.689 120.303 165.007 120.315 165.264 120.34L165.081 120.903C164.799 120.719 164.506 120.523 164.2 120.303C163.894 120.083 163.576 119.863 163.258 119.643C162.94 119.41 162.634 119.178 162.34 118.945C162.047 118.713 161.753 118.48 161.472 118.272L154.609 112.767L155.636 109.648ZM157.838 113.33L160.016 115.177L157.826 121.893L154.976 122.126L157.838 113.33Z" fill="white"/>
<path d="M145.128 133.369L156.835 143.4L152.578 148.367C151.979 149.064 151.269 149.554 150.462 149.835C149.654 150.116 148.822 150.165 147.978 150.006C147.134 149.847 146.351 149.468 145.629 148.856C144.908 148.232 144.394 147.511 144.1 146.691C143.807 145.871 143.721 145.027 143.856 144.183C143.99 143.339 144.369 142.556 144.969 141.859L147.073 139.4L142.975 135.889L145.128 133.369ZM149.361 141.284L147.464 143.486C147.232 143.755 147.097 144.048 147.061 144.379C147.012 144.709 147.061 145.039 147.183 145.37C147.305 145.7 147.513 145.994 147.819 146.25C148.125 146.507 148.431 146.666 148.773 146.728C149.116 146.789 149.434 146.776 149.74 146.679C150.046 146.581 150.327 146.397 150.56 146.128L152.456 143.926L149.361 141.284Z" fill="white"/>
<path d="M127.622 149.492L134.803 153.004L132.319 155.377L124.453 151.646L127.622 149.492ZM134.815 144.538L143.562 157.224L137.947 161.102C137.164 161.64 136.32 161.958 135.439 162.044C134.558 162.13 133.714 161.995 132.931 161.64C132.148 161.286 131.487 160.723 130.949 159.952C130.423 159.194 130.129 158.374 130.068 157.493C130.007 156.612 130.178 155.781 130.57 154.973C130.961 154.166 131.549 153.493 132.332 152.955L135.329 150.887L132.197 146.336L134.815 144.538ZM136.858 153.114L133.995 155.083C133.665 155.303 133.433 155.585 133.286 155.903C133.139 156.221 133.102 156.563 133.151 156.93C133.2 157.297 133.347 157.64 133.579 157.983C133.836 158.35 134.13 158.606 134.46 158.766C134.79 158.925 135.17 158.973 135.586 158.912C136.002 158.851 136.393 158.692 136.797 158.411L139.317 156.674L136.858 153.114Z" fill="white"/>
<path d="M114.825 155.144C115.914 154.79 116.966 154.643 118.006 154.716C119.034 154.79 120 155.059 120.905 155.511C121.811 155.964 122.594 156.588 123.254 157.395C123.927 158.203 124.441 159.145 124.796 160.234C125.163 161.335 125.309 162.411 125.261 163.439C125.199 164.479 124.955 165.445 124.502 166.35C124.049 167.256 123.438 168.039 122.655 168.711C121.872 169.384 120.942 169.898 119.878 170.265C118.789 170.62 117.737 170.767 116.709 170.693C115.682 170.62 114.727 170.351 113.822 169.886C112.917 169.421 112.134 168.797 111.473 168.002C110.813 167.207 110.299 166.265 109.932 165.176C109.577 164.087 109.418 163.023 109.479 161.983C109.54 160.943 109.785 159.964 110.238 159.059C110.69 158.154 111.302 157.359 112.073 156.686C112.831 156.013 113.749 155.499 114.825 155.144ZM115.828 158.105C115.205 158.313 114.666 158.619 114.226 159.022C113.785 159.426 113.443 159.891 113.21 160.429C112.966 160.968 112.831 161.543 112.807 162.179C112.77 162.803 112.868 163.451 113.088 164.124C113.308 164.797 113.626 165.372 114.018 165.861C114.422 166.35 114.874 166.73 115.388 167.023C115.902 167.305 116.452 167.488 117.04 167.537C117.627 167.598 118.238 167.525 118.875 167.317C119.486 167.109 120.012 166.815 120.453 166.411C120.893 166.008 121.236 165.543 121.493 165.005C121.749 164.466 121.884 163.879 121.896 163.255C121.909 162.631 121.811 161.983 121.59 161.31C121.37 160.637 121.064 160.062 120.673 159.573C120.281 159.084 119.829 158.692 119.303 158.411C118.777 158.129 118.214 157.958 117.627 157.897C117.04 157.836 116.44 157.909 115.828 158.105Z" fill="white"/>
<path d="M100.255 158.044C100.818 158.019 101.332 158.056 101.821 158.166C102.31 158.276 102.763 158.435 103.167 158.655C103.571 158.876 103.95 159.145 104.28 159.475C104.623 159.805 104.904 160.172 105.149 160.588L103.326 162.68C103.057 162.35 102.812 162.081 102.592 161.873C102.372 161.665 102.151 161.493 101.956 161.359C101.76 161.224 101.552 161.139 101.344 161.102C101.136 161.065 100.916 161.041 100.683 161.053C100.28 161.078 99.9127 161.188 99.6068 161.396C99.301 161.604 99.0686 161.873 98.9218 162.215C98.775 162.558 98.7016 162.949 98.726 163.39L99.0686 170.803L101.882 170.669L102.017 173.592L93.5879 173.984L93.4534 171.06L95.8267 170.95L95.4719 163.157C95.4352 162.423 95.5331 161.75 95.7533 161.139C95.9735 160.527 96.3038 159.989 96.732 159.536C97.1601 159.083 97.6862 158.729 98.2856 158.46C98.8728 158.227 99.5334 158.08 100.255 158.044Z" fill="white"/>
<path d="M88.6211 158.178L85.526 173.274L75.3232 171.182L75.9105 168.332L82.9447 169.775L84.8654 160.368L77.6843 158.9L78.2715 156.049L88.6211 158.178ZM85.8196 164.185L85.2569 166.95L77.5987 165.384L78.1614 162.619L85.8196 164.185Z" fill="white"/>
<path d="M68.2648 151.474C69.2802 151.976 70.1243 152.612 70.7972 153.383C71.47 154.154 71.9716 155.01 72.2774 155.952C72.5833 156.894 72.6934 157.897 72.6077 158.937C72.5221 159.977 72.2163 161.029 71.7025 162.069C71.2009 163.084 70.5647 163.928 69.7818 164.613C68.9989 165.298 68.1303 165.8 67.1761 166.118C66.2218 166.436 65.2187 166.558 64.1666 166.485C63.1268 166.412 62.0991 166.13 61.0838 165.629C60.4231 165.298 59.8237 164.895 59.2732 164.405C58.7227 163.916 58.27 163.365 57.903 162.754C57.536 162.142 57.2791 161.518 57.1323 160.858L60.0072 159.72C60.154 160.185 60.3375 160.613 60.5699 161.017C60.8024 161.42 61.0715 161.775 61.3774 162.081C61.6954 162.387 62.0624 162.656 62.4784 162.864C63.0411 163.145 63.6283 163.304 64.2278 163.329C64.8272 163.365 65.4022 163.28 65.9527 163.084C66.5032 162.888 67.0293 162.582 67.5064 162.154C67.9835 161.726 68.3872 161.188 68.7053 160.552C69.0356 159.891 69.2191 159.243 69.268 158.607C69.3169 157.97 69.2435 157.371 69.0478 156.808C68.8521 156.245 68.534 155.732 68.1058 155.267C67.6776 154.802 67.1394 154.41 66.491 154.092C66.075 153.884 65.6346 153.738 65.182 153.664C64.7294 153.591 64.2767 153.566 63.8485 153.615C63.4081 153.664 62.9922 153.75 62.5885 153.897L62.2704 150.863C62.772 150.667 63.3592 150.557 64.0443 150.532C64.7294 150.508 65.4267 150.569 66.1729 150.728C66.9192 150.887 67.592 151.144 68.2648 151.474Z" fill="white"/>
<path d="M57.7681 144.868L49.6328 154.288L53.0337 157.224L51.0886 159.475L41.6932 151.364L43.6384 149.113L47.1372 152.135L55.2725 142.715L57.7681 144.868Z" fill="white"/>
<path d="M35.4546 130.225C30.2065 120.389 27.4294 109.257 27.4294 98.0384C27.4294 87.1139 29.9251 76.6664 34.8552 66.9897L37.0328 68.103C32.2862 77.4249 29.8762 87.4931 29.8762 98.0384C29.8762 108.865 32.5553 119.594 37.6077 129.075L35.4546 130.225Z" fill="white"/>
</svg>
